<svg width="24" height="24" viewBox="0 0 24 24" fill="none" xmlns="http://www.w3.org/2000/svg">
<g id="octicon:stopwatch-24">
<path id="Vector" d="M10.25 0H13.75C13.9489 0 14.1397 0.0790176 14.2803 0.21967C14.421 0.360322 14.5 0.551088 14.5 0.75C14.5 0.948912 14.421 1.13968 14.2803 1.28033C14.1397 1.42098 13.9489 1.5 13.75 1.5H12.75V2.778C14.82 2.9305 16.7906 3.72627 18.386 5.054L19.72 3.72C19.8623 3.58759 20.0503 3.51549 20.2446 3.51884C20.439 3.5222 20.6244 3.60076 20.762 3.738C20.8993 3.8756 20.9778 4.06105 20.9812 4.25537C20.9845 4.44969 20.9124 4.63774 20.78 4.78L19.465 6.096C21.1012 7.92581 22.0039 10.2954 22 12.75C22 18.273 17.523 22.75 12 22.75C6.47701 22.75 2.00001 18.273 2.00001 12.75C1.99613 10.2954 2.89887 7.92581 4.53501 6.096L3.22001 4.78C3.0876 4.63774 3.0155 4.44969 3.01886 4.25537C3.02221 4.06105 3.10077 3.8756 3.23801 3.738C3.37562 3.60076 3.56107 3.5222 3.75538 3.51884C3.9497 3.51549 4.13775 3.58759 4.28001 3.72L5.61501 5.054C7.2103 3.7267 9.18041 2.93096 11.25 2.778V1.5H10.25C10.0511 1.5 9.86033 1.42098 9.71968 1.28033C9.57903 1.13968 9.50001 0.948912 9.50001 0.75C9.50001 0.551088 9.57903 0.360322 9.71968 0.21967C9.86033 0.0790176 10.0511 0 10.25 0ZM12 21.25C13.1163 21.2499 14.2217 21.03 15.253 20.6027C16.2843 20.1755 17.2213 19.5493 18.0106 18.7599C18.7999 17.9705 19.426 17.0334 19.8531 16.002C20.2803 14.9707 20.5001 13.8653 20.5 12.749C20.4999 11.6327 20.28 10.5273 19.8528 9.49604C19.4255 8.46473 18.7993 7.52768 18.0099 6.73839C17.2205 5.94909 16.2834 5.323 15.2521 4.89587C14.2207 4.46874 13.1153 4.24893 11.999 4.249C9.74454 4.24913 7.58246 5.14485 5.9884 6.73909C4.39434 8.33334 3.49888 10.4955 3.49901 12.75C3.49915 15.0045 4.39486 17.1666 5.9891 18.7606C7.58335 20.3547 9.74554 21.2501 12 21.25ZM16.03 8.72C16.1705 8.86063 16.2494 9.05125 16.2494 9.25C16.2494 9.44875 16.1705 9.63937 16.03 9.78L13.649 12.162C13.7826 12.5363 13.7848 12.9448 13.6553 13.3205C13.5258 13.6962 13.2723 14.0166 12.9365 14.2291C12.6006 14.4415 12.2025 14.5334 11.8076 14.4895C11.4126 14.4456 11.0444 14.2686 10.7634 13.9876C10.4824 13.7066 10.3054 13.3384 10.2615 12.9434C10.2176 12.5485 10.3095 12.1504 10.5219 11.8146C10.7344 11.4787 11.0548 11.2252 11.4305 11.0957C11.8062 10.9662 12.2148 10.9684 12.589 11.102L14.969 8.72C15.0387 8.65031 15.1214 8.59502 15.2124 8.5573C15.3034 8.51958 15.401 8.50016 15.4995 8.50016C15.598 8.50016 15.6956 8.51958 15.7866 8.5573C15.8777 8.59502 15.9604 8.65031 16.03 8.72Z" fill="white"/>
</g>
</svg>
